<?xml version="1.0" encoding="utf-8"?>
<!-- Generator: Adobe Illustrator 26.0.3, SVG Export Plug-In . SVG Version: 6.00 Build 0)  -->
<svg version="1.1" id="Layer_1" xmlns="http://www.w3.org/2000/svg" xmlns:xlink="http://www.w3.org/1999/xlink" x="0px" y="0px"
	 viewBox="0 0 1820 1214" style="enable-background:new 0 0 1820 1214;" xml:space="preserve">
<style type="text/css">
	.st0{clip-path:url(#SVGID_00000036243109944631797610000011819007512974795953_);}
	.st1{fill:url(#SVGID_00000106858908235305401160000006222027495590857134_);}
	.st2{fill:#C5EFF9;}
	.st3{fill:#7ADCFB;}
	.st4{fill:#FFFFFF;}
	.st5{fill:url(#SVGID_00000179642530474251654120000001406053050169539756_);}
	.st6{fill:#E7F0F8;}
	.st7{fill:url(#SVGID_00000092423854594226788400000015654576029075800762_);}
	.st8{fill:url(#SVGID_00000176721790449176700280000008957229159108232872_);}
	.st9{clip-path:url(#SVGID_00000116928224383339840010000017037897325458390186_);}
	.st10{fill:url(#SVGID_00000178891184548544690880000010566929201297683635_);}
	.st11{fill:#26A4FB;}
	.st12{fill:#2E7DFB;}
	.st13{fill:#F2EBEC;}
	.st14{fill:#CAD9FC;}
	.st15{fill:#B8EBF4;}
	.st16{fill:#EDF4F9;}
	.st17{fill:#FF6FCA;}
	.st18{fill:#FFB1DF;}
	.st19{fill:#2300B1;}
	.st20{fill:#150077;}
	.st21{fill:#3E26D1;}
	.st22{fill:#FDC401;}
	.st23{fill:#D0EDFC;}
	.st24{fill:#C6E6FF;}
</style>
<g id="New_Symbol_18">
</g>
<g id="New_Symbol_1_71_">
</g>
<g id="New_Symbol_1">
	<g>
		<defs>
			<polygon id="SVGID_1_" points="211.55,1051.1 837.54,1051.1 734.98,413 108.99,413 			"/>
		</defs>
		<clipPath id="SVGID_00000039102750083729952160000012822415961249090238_">
			<use xlink:href="#SVGID_1_"  style="overflow:visible;"/>
		</clipPath>
		<g style="clip-path:url(#SVGID_00000039102750083729952160000012822415961249090238_);">
			<g>
				
					<linearGradient id="SVGID_00000119077709610463189420000011450230601159882127_" gradientUnits="userSpaceOnUse" x1="189.3725" y1="533.9514" x2="446.9126" y2="907.2659">
					<stop  offset="0" style="stop-color:#7ADCFB"/>
					<stop  offset="1" style="stop-color:#B8EBF4"/>
				</linearGradient>
				<path style="fill:url(#SVGID_00000119077709610463189420000011450230601159882127_);" d="M330.12,676.84
					c-10.19-8.08-21.91-16.27-34.41-16.61c-12.5-0.35-23.33,11.92-16.1,22.25c28.24,40.32,54.8,81.48,79.59,123.34
					c-11.39,9.27-31.07-13.24-46.66-10.49c-8.31,1.47-12.16,10.2-10.74,18.26c1.43,8.06,6.8,15.53,12.08,22.61
					c58.2,77.92,128.47,152.7,217.65,198.66c9.46,4.88,19.67,9.54,29.78,9.34c10.11-0.2,19.68-7.07,18.42-16.48
					c-9.73-72.39-56.92-139.17-108.98-197.65C424.3,777.87,386.53,721.6,330.12,676.84z"/>
			</g>
		</g>
		<g style="clip-path:url(#SVGID_00000039102750083729952160000012822415961249090238_);">
			<g>
				<path class="st2" d="M210.11,808.99c1.32,9.15,8.9,17.28,16.75,23.92c22.97,19.42,52.56,33.58,68.12,58.07
					c22.77,35.87,8.86,84.16,41.83,113.27c14.8,13.07,35.39,18.21,51.5,29.84c23.4,16.88,33.7,44.6,37.7,70.16
					c1.49,9.53,2.8,20,10.46,27.41c4.44,4.28,10.39,6.84,16.19,9.1c29.53,11.49,61.29,18.69,90.78,15.05
					c10.68-1.32,20.99-4.23,30.27-8.62c0.3-0.13,0.6-0.27,0.9-0.42c15.94-7.72,28.67-19.82,34.61-35.58
					c12.26-32.57-7.93-54.97-33.57-78.37c-12.29-11.21-18.24-11.35-28.44-24.51c-10.96-14.15-12.13-31.71-26.44-46.38
					c-18.23-18.69-42.25-31.93-66.9-41.3c-14.42-5.48-29.99-10.25-40.91-20.97c-9.67-9.49-14.07-22.17-22.48-32.57
					c-8.68-10.73-21.11-18.44-33.43-25.45C337.18,830.32,201.89,752.16,210.11,808.99z"/>
			</g>
		</g>
		<g style="clip-path:url(#SVGID_00000039102750083729952160000012822415961249090238_);">
			<g>
				<path class="st3" d="M488.51,966.52c-29.37-35.84-45.63-79.61-34.48-114.34c2.56-7.98,6.58-15.32,10.16-22.85
					c7.02-14.76,12.46-30.61,12.61-47.55c0.27-29.7-22.91-55.9-29.25-85.2c-3.16-14.63-9.63-20.85-4.08-34.97
					c3.7-9.42,10.88-14.99,17.02-22.88c14.03-18.01,21.6-40.44,20.36-64.13c-1.31-24.97-5.38-49.28-10.06-74.4
					c-2.71-14.58-2.24-33.85,12.92-36.11c12.12-1.81,23.37,9.57,30.29,20.05c10.3,15.6,18.17,32.38,23.23,49.55
					c4.06,13.8,6.49,28.23,14.82,40.73c7.04,10.57,17.66,18.79,27.14,27.71c36.72,34.52,56.14,82.69,54.78,127.46
					c-1.38,45.24-18.3,78.86,6.58,126c10.71,20.29,25.88,38.87,36.52,59.19c21.09,40.26,10.71,90.14-28.45,109.64
					C595.53,1050.88,529.35,1016.37,488.51,966.52z"/>
			</g>
			<g>
				<path class="st4" d="M588.17,1034.41l-1.14-0.12c-0.19-4.57-0.24-9.25-0.15-13.89c0.27-14.31,1.85-28.57,3.39-42.35
					c1.92-17.3,3.91-35.18,3.3-53.27c-1.23-35.86-13.03-73.58-33.24-106.22c-2.4-3.88-4.98-7.79-7.47-11.56
					c-7.26-11.01-14.76-22.39-19.06-34.72c-8.07-23.12-3.96-46.05,0.01-68.22c1.85-10.36,3.77-21.07,4.44-31.7
					c2.71-42.94-13.3-83.68-28.77-123.09c-10.84-27.59-22.05-56.13-26.79-85.24l1.13-0.01c4.72,29.01,15.91,57.49,26.73,85.03
					c15.52,39.51,31.57,80.36,28.85,123.52c-0.67,10.68-2.59,21.42-4.45,31.8c-3.95,22.06-8.03,44.86-0.05,67.73
					c4.25,12.2,11.71,23.51,18.93,34.46c2.5,3.78,5.07,7.7,7.49,11.59c20.31,32.8,32.18,70.72,33.41,106.75
					c0.61,18.15-1.38,36.07-3.31,53.4c-1.53,13.77-3.11,28-3.38,42.27C587.93,1025.2,587.98,1029.86,588.17,1034.41z"/>
			</g>
		</g>
		<g style="clip-path:url(#SVGID_00000039102750083729952160000012822415961249090238_);">
			<g>
				
					<linearGradient id="SVGID_00000160151861792986342910000012025307902045415559_" gradientUnits="userSpaceOnUse" x1="346.3756" y1="817.2913" x2="692.0767" y2="817.2913">
					<stop  offset="0" style="stop-color:#7ADCFB"/>
					<stop  offset="1" style="stop-color:#26A4FB"/>
				</linearGradient>
				<path style="fill:url(#SVGID_00000160151861792986342910000012025307902045415559_);" d="M361.66,765.18
					c-10.07,38.45,53.53,72.99,60.04,113.93c1.26,7.96,0.26,15.52-1.83,22.9c0.59,0.99,0.93,2.11,0.89,3.32
					c-1.14,34.43-1.69,70.88,9.12,103.15c4.76,14.2,11.14,26.37,20.87,37.91c9.96,11.81,23.59,21.49,37.9,28.31
					c16.82,8.02,35.42,11.85,53.76,14.56c19.8,2.93,39.83,4.27,59.82,5.05c28.24,1.11,56.74,2.61,85.07,1.55
					c5.68-25.66,5.87-54.21,2.86-72.67c-4.09-50.32-30.3-103.84-79-137.86c-16.55-11.56-35.85-21.17-47.48-36.39
					c-29.19-38.22,5.24-88.97-25.65-126.32c-12.95-15.66-34.46-24.67-49.65-38.9c-19.16-17.97-26.14-42-32.52-64.66
					c-6.38-22.66-13.91-46.75-33.7-64.22c-19.79-17.47-55.99-23.52-70.07-6.04c-8.76,10.87-6.26,26.73-0.31,40.53
					c18.71,43.45,68.58,88.37,48.78,126.89C391.08,734.65,366.9,745.16,361.66,765.18z"/>
			</g>
		</g>
		<g style="clip-path:url(#SVGID_00000039102750083729952160000012822415961249090238_);">
			<g>
				<path class="st6" d="M529.31,942.52l0.56,1.93c4.03,13.94,4.52,27.45,4.3,40.59c0.38-0.21,0.76-0.4,1.16-0.58
					c0.2-13-0.35-26.36-4.34-40.19l-0.57-1.92c-9.88-34.15-20.09-69.48-37.52-102.04c-6.41-12.01-14.2-23.74-21.72-35.07
					c-12.03-18.15-24.49-36.92-31.62-57.27c-7.51-21.42-8.82-43.89-10.1-65.64c-1.36-23.35-2.78-47.49-11.86-70.37
					c-9.23-23.23-26.16-45.17-42.5-66.38c-1.69-2.19-3.37-4.37-5.03-6.54l-1.17,0.22c1.74,2.27,3.5,4.56,5.27,6.86
					c16.31,21.15,33.19,43.04,42.35,66.11c9.02,22.72,10.43,46.78,11.79,70.05c1.28,21.81,2.6,44.37,10.16,65.92
					c7.18,20.49,19.67,39.32,31.75,57.53c7.51,11.31,15.26,23,21.66,34.97C509.24,873.17,519.45,908.43,529.31,942.52z"/>
			</g>
		</g>
	</g>
	<g>
		<g id="XMLID_2817_">
			<g>
				
					<linearGradient id="SVGID_00000083811825492920109560000002172356173597103506_" gradientUnits="userSpaceOnUse" x1="-8139.2744" y1="-11770.2695" x2="-7908.9639" y2="-11770.2695" gradientTransform="matrix(0.8245 0.2656 -0.0681 0.7395 7147.4614 11784.3242)">
					<stop  offset="0" style="stop-color:#7ADCFB"/>
					<stop  offset="1" style="stop-color:#B8EBF4"/>
				</linearGradient>
				<path style="fill:url(#SVGID_00000083811825492920109560000002172356173597103506_);" d="M1399.41,835.59
					c7.42-3.82,16.01-7.34,25.64-4.51c9.63,2.84,18.67,15.18,13.66,21.5c-19.56,24.68-37.79,50.44-54.61,77.2
					c9.31,10.12,23.24-2.69,35.42,3.35c6.49,3.22,9.95,11.05,9.29,17.03c-0.66,5.98-4.39,10.52-8.08,14.77
					c-40.6,46.8-90.7,88.13-156.98,102.09c-7.03,1.48-14.65,2.61-22.46-0.06c-7.82-2.67-15.58-10.45-15.12-17.53
					c3.51-54.5,36.24-95.27,73.18-128.32C1332.32,891.61,1358.35,856.76,1399.41,835.59z"/>
			</g>
		</g>
		
			<linearGradient id="SVGID_00000043447261793721109960000018152973961058331533_" gradientUnits="userSpaceOnUse" x1="1086.1498" y1="715.6997" x2="1399.5399" y2="715.6997">
			<stop  offset="0" style="stop-color:#7ADCFB"/>
			<stop  offset="1" style="stop-color:#B8EBF4"/>
		</linearGradient>
		<path style="fill:url(#SVGID_00000043447261793721109960000018152973961058331533_);" d="M1231.82,919.29
			c32.18-18.46,57.4-48.72,60.15-82.21c0.63-7.69,0.02-15.43-0.22-23.14c-0.48-15.14,0.52-30.56,5.65-44.81
			c9-24.99,33.75-37.81,47.37-59.86c5.41-8.77,15.39-12.82,13.7-24.27c-2.82-19.13-14.66-37.27-16.24-56.62
			c-0.31-3.78-0.28-12.39,0.57-15.98c1.38-5.82,5.56-10.04,7.18-15.88c7-25.31,38.62-35.73,47.59-61.26
			c5.42-15.42-0.43-36.06-16.07-40.8c-14.13-4.29-28.38,5.6-39.24,15.6c-27.85,25.67-51.17,56.24-68.58,89.88
			c-17.54,33.89-58.6,36.21-73.99,73.16c-14.8,35.55-11.64,64.91-42.74,93.37c-13.97,12.78-30.62,22.37-44.54,35.2
			c-27.61,25.42-35.59,71.3-13.49,103.07C1128.84,947.8,1187.06,944.96,1231.82,919.29z"/>
		<g>
			<path class="st4" d="M1140.09,937.26l-0.86-0.35c1.55-3.75,3.02-7.63,4.39-11.53c4.22-12.06,7.49-24.61,10.65-36.74
				c3.98-15.28,8.09-31.08,14.15-46.05c12.03-29.71,32.29-56.79,57.03-76.28c2.94-2.31,6-4.57,8.96-6.76
				c8.57-6.33,17.43-12.87,24.26-21.41c12.8-16.01,16.93-36.73,20.92-56.77c1.88-9.43,3.82-19.18,6.64-28.4
				c11.4-37.23,35.57-65.14,58.94-92.12c16.29-18.81,33.14-38.26,45.5-60.7l0.8,0.46l0,0.01c-12.4,22.5-29.28,41.99-45.6,60.84
				c-23.31,26.91-47.41,54.74-58.75,91.79c-2.81,9.17-4.75,18.9-6.62,28.31c-4.01,20.14-8.16,40.97-21.11,57.16
				c-6.9,8.64-15.81,15.22-24.43,21.58c-2.96,2.18-6.01,4.44-8.94,6.74c-24.62,19.38-44.77,46.34-56.74,75.9
				c-6.03,14.91-10.14,30.68-14.11,45.93c-3.17,12.15-6.44,24.72-10.67,36.82C1143.12,929.6,1141.64,933.49,1140.09,937.26z"/>
		</g>
		<g>
			<defs>
				<rect id="SVGID_00000104702422613935324230000007172514467748784057_" x="799.86" y="544.8" width="689.26" height="520.58"/>
			</defs>
			<clipPath id="SVGID_00000109742113968866755530000008751089863164780162_">
				<use xlink:href="#SVGID_00000104702422613935324230000007172514467748784057_"  style="overflow:visible;"/>
			</clipPath>
			<g style="clip-path:url(#SVGID_00000109742113968866755530000008751089863164780162_);">
				
					<linearGradient id="SVGID_00000026878570102971573850000014607219622234504086_" gradientUnits="userSpaceOnUse" x1="991.0138" y1="898.1551" x2="1469.8696" y2="898.1551">
					<stop  offset="0" style="stop-color:#7ADCFB"/>
					<stop  offset="1" style="stop-color:#26A4FB"/>
				</linearGradient>
				<path style="fill:url(#SVGID_00000026878570102971573850000014607219622234504086_);" d="M1011.5,952.07
					c40.84-56.35,121.55-64.35,176.02-101.97c40.45-27.93,31.02-89.14,72.2-114c15.91-9.6,36.05-9.18,53.17-16.46
					c21.61-9.2,35.96-29.4,49.32-48.54s28.16-39.16,50.08-47.61c21.92-8.45,52.44,1.04,56.98,23.86c2.82,14.18-5,28.41-14.74,39.19
					c-30.69,33.95-86.26,56.11-85.04,101.62c0.58,21.75,15.59,42.12,12.29,63.63c-6.35,41.31-68.82,47.67-89.04,84.36
					c-10.36,18.79-7.42,41.62-9.28,62.94c-5.15,59.23-47.74,107.77-88.23,151.75c-10.55,11.46-22.67,23.72-38.31,24.93
					c-11.28,0.87-22.03-4.28-32.13-9.3c-35.95-17.86-100.89-34.95-117.89-74.85c-17.39-40.82-24.6-93.01-0.27-132.32
					C1008.2,956.8,1009.81,954.4,1011.5,952.07z"/>
			</g>
			<g style="clip-path:url(#SVGID_00000109742113968866755530000008751089863164780162_);">
				<path class="st6" d="M1050.95,1133.2c2.16-4.5,4.25-9.07,6.33-13.61c4.57-9.98,8.89-19.42,13.89-28.07
					c7.13-12.31,16.38-22.67,25.33-32.69c7.72-8.63,15.71-17.57,22.1-27.57c7.05-11.01,11.77-23.14,16.34-34.86
					c5.71-14.67,11.63-29.82,22.16-43.19l1.16-1.48c20.49-26.02,41.69-52.93,67.43-74.33c9.49-7.89,19.93-14.96,30.04-21.79
					c16.26-11.02,33.09-22.4,46.38-37.51c13.98-15.88,23.48-35.3,32.65-54.08c9.79-20.03,19.92-40.75,35.48-57.05
					c15.81-16.55,37.2-28.79,57.87-40.62c13.96-7.98,27.58-15.78,39.4-24.67l-0.43-0.95c-11.82,8.92-25.49,16.74-39.49,24.74
					c-20.74,11.87-42.19,24.14-58.11,40.8c-15.68,16.42-25.84,37.2-35.66,57.31c-9.15,18.72-18.6,38.07-32.51,53.86
					c-13.2,15.01-29.97,26.36-46.18,37.34c-10.13,6.85-20.6,13.94-30.13,21.86c-25.82,21.46-47.05,48.42-67.58,74.49l-1.17,1.47
					c-10.62,13.49-16.56,28.72-22.3,43.45c-4.55,11.67-9.26,23.75-16.25,34.68c-6.35,9.95-14.31,18.85-22,27.45
					c-8.99,10.05-18.28,20.45-25.45,32.85c-5.03,8.69-9.35,18.15-13.93,28.16c-2.07,4.52-4.15,9.04-6.3,13.53L1050.95,1133.2z"/>
			</g>
		</g>
	</g>
	<g>
		<g>
			<g>
				<g>
					<path class="st11" d="M703.91,846.88v94.59c0.53,0.05,1.06,0.14,1.59,0.14h500.3c13.27,0,24.13-10.86,24.13-24.13v-46.62
						c0-13.27-10.86-24.13-24.13-24.13H705.5C704.97,846.73,704.44,846.83,703.91,846.88z"/>
				</g>
			</g>
		</g>
		<g>
			<g>
				<g>
					<path class="st12" d="M1175.2,918.28v-46.62c0-13.27-10.86-24.13-24.13-24.13h24.13c13.27,0,24.13,10.86,24.13,24.13v46.62
						c0,13.27-10.86,24.13-24.13,24.13h-24.13C1164.34,942.41,1175.2,931.55,1175.2,918.28z"/>
				</g>
			</g>
		</g>
		<g>
			<g>
				<g>
					<path class="st12" d="M1123.01,918.28v-46.62c0-13.27-10.86-24.13-24.13-24.13h24.13c13.27,0,24.13,10.86,24.13,24.13v46.62
						c0,13.27-10.86,24.13-24.13,24.13h-24.13C1112.15,942.41,1123.01,931.55,1123.01,918.28z"/>
				</g>
			</g>
		</g>
		<g>
			<g>
				<g>
					<path class="st3" d="M691.02,846.73h307.26c13.27,0,24.13,10.86,24.13,24.13v46.62c0,13.27-10.86,24.13-24.13,24.13H691.02
						c-0.53,0-1.06-0.1-1.59-0.14v-9.51H985.4c11.53,0,20.9-9.36,20.9-20.9v-33.78c0-11.53-9.36-20.9-20.9-20.9H689.43v-9.51
						C689.96,846.83,690.49,846.73,691.02,846.73z"/>
				</g>
			</g>
		</g>
		<g>
			<g>
				<g>
					<path class="st13" d="M698.28,917.48v-46.62c0-5.45-1.9-10.43-4.97-14.48H985.4c11.53,0,20.9,9.36,20.9,20.9v33.78
						c0,11.53-9.36,20.9-20.9,20.9H693.31C696.38,927.91,698.28,922.92,698.28,917.48z"/>
				</g>
			</g>
		</g>
		<g>
			<g>
				<g>
					<g>
						<path class="st14" d="M985.4,880.51H698.28v-9.65c0-5.45-1.9-10.43-4.97-14.48H985.4c11.53,0,20.9,9.36,20.9,20.9v24.13
							C1006.3,889.87,996.93,880.51,985.4,880.51z"/>
					</g>
				</g>
			</g>
			<g>
				<g>
					<g>
						<path class="st15" d="M698.28,931.96h-4.97c3.07-4.05,4.97-9.03,4.97-14.48V931.96z"/>
					</g>
				</g>
			</g>
		</g>
	</g>
	<g>
		<g>
			<g>
				<path class="st3" d="M1151.43,423.95v104.54c-0.59,0.05-1.17,0.16-1.76,0.16H634.04c-14.67,0-26.67-12-26.67-26.67v-51.52
					c0-14.67,12-26.67,26.67-26.67h515.63C1150.25,423.79,1150.84,423.89,1151.43,423.95z"/>
			</g>
		</g>
	</g>
	<g>
		<g>
			<g>
				<path class="st15" d="M1165.67,423.79H863.4c-14.67,0-26.67,12-26.67,26.67v51.52c0,14.67,12,26.67,26.67,26.67h302.27
					c0.59,0,1.17-0.11,1.76-0.16v-10.51H877.64c-12.75,0-23.1-10.35-23.1-23.1v-37.34c0-12.75,10.35-23.1,23.1-23.1h289.79v-10.51
					C1166.84,423.89,1166.26,423.79,1165.67,423.79z"/>
			</g>
		</g>
	</g>
	<g>
		<g>
			<g>
				<path class="st16" d="M1157.65,501.98v-51.52c0-6.02,2.1-11.53,5.49-16h-285.5c-12.75,0-23.1,10.35-23.1,23.1v37.34
					c0,12.75,10.35,23.1,23.1,23.1h285.5C1159.75,513.51,1157.65,508,1157.65,501.98z"/>
			</g>
		</g>
	</g>
	<g>
		<g>
			<g>
				<g>
					<path class="st14" d="M877.64,448.93h280.14c0.33-5.42,2.26-10.39,5.36-14.48h-285.5c-12.75,0-23.1,10.35-23.1,23.1v14.48
						C854.54,459.28,864.89,448.93,877.64,448.93z"/>
				</g>
			</g>
		</g>
	</g>
	<g>
		<g>
			<g>
				<g>
					<path class="st16" d="M1237.15,252.96v38.61c0,22.68-18.34,41.02-41.02,41.02H738.1c-7.72,0-14.91-2.17-21.09-5.84
						c3.72-16.7,5.79-35.08,5.79-54.48c0-2.17-0.05-4.3-0.1-6.42c-0.39-17.04-2.41-33.2-5.69-48.02c6.18-3.72,13.37-5.89,21.09-5.89
						h458.03C1218.81,211.95,1237.15,230.33,1237.15,252.96z"/>
				</g>
			</g>
		</g>
		<g>
			<g>
				<g>
					<path class="st14" d="M1196.13,211.95H738.1c-7.72,0-14.91,2.17-21.09,5.89c1.4,6.3,2.51,12.89,3.42,19.64
						c3.33-0.89,6.82-1.4,10.43-1.4h458.03c22.68,0,41.02,18.39,41.02,41.02v37.75c4.56-6.61,7.24-14.62,7.24-23.27v-38.61
						C1237.15,230.33,1218.81,211.95,1196.13,211.95z"/>
				</g>
			</g>
		</g>
		<g>
			<g>
				<g>
					<polygon class="st3" points="1026.44,252.18 1026.44,311.7 1050.57,298.83 1073.09,313.3 1073.09,252.18 					"/>
				</g>
			</g>
		</g>
		<g>
			<g>
				<g>
					<g>
						<path class="st11" d="M1202.6,339.83h-482.2c-2.28,0-4.62-0.22-6.96-0.66l2.63-14.23c1.48,0.27,2.93,0.41,4.33,0.41h482.2
							c13.3,0,24.13-10.83,24.13-24.13v-59.5c0-13.3-10.83-24.13-24.13-24.13h-482.2c-1.4,0-2.85,0.14-4.33,0.41l-2.63-14.23
							c2.34-0.43,4.68-0.65,6.96-0.65h482.2c21.29,0,38.61,17.32,38.61,38.61v59.5C1241.2,322.51,1223.88,339.83,1202.6,339.83z"/>
					</g>
				</g>
			</g>
		</g>
	</g>
	<g>
		<g>
			<g>
				<path class="st17" d="M1188.12,527.27H816.53c20.85,0,37.79,16.94,37.79,37.79v25.72c0,20.9-16.94,37.84-37.79,37.84h371.59
					c20.85,0,37.79-16.94,37.79-37.84v-25.72C1225.91,544.21,1208.97,527.27,1188.12,527.27z"/>
			</g>
		</g>
	</g>
	<g>
		<g>
			<g>
				<path class="st18" d="M854.31,590.78v-25.72c0-20.85-16.94-37.79-37.79-37.79H571.18h-4.83v14.48h250.17
					c12.84,0,23.31,10.47,23.31,23.31v25.72c0,12.89-10.47,23.36-23.31,23.36H566.35v14.48h4.83h245.35
					C837.37,628.61,854.31,611.67,854.31,590.78z"/>
			</g>
		</g>
	</g>
	<g>
		<g>
			<g>
				<path class="st16" d="M839.84,590.78v-25.72c0-12.84-10.47-23.31-23.31-23.31H566.35v72.39h250.17
					C829.36,614.13,839.84,603.66,839.84,590.78z"/>
			</g>
		</g>
	</g>
	<g>
		<g>
			<g>
				<path class="st14" d="M816.53,541.75H566.35v19.3h250.17c12.84,0,23.31,10.47,23.31,23.31v-19.3
					C839.84,552.22,829.36,541.75,816.53,541.75z"/>
			</g>
		</g>
	</g>
	<g>
		<g>
			<g>
				<rect x="723.21" y="350.44" class="st16" width="456.85" height="61.13"/>
			</g>
		</g>
	</g>
	<g>
		<g>
			<g>
				<rect x="723.21" y="350.44" class="st14" width="456.85" height="19.3"/>
			</g>
		</g>
	</g>
	<g>
		<g>
			<g>
				<path class="st19" d="M734.49,345.19v69.73c-16.41-2.61-28.96-16.89-28.96-34.07v-1.59
					C705.53,362.08,718.08,347.79,734.49,345.19z"/>
			</g>
		</g>
	</g>
	<g>
		<g>
			<g>
				<path class="st12" d="M1186.49,409.03c-0.8,0.07-1.61,0.12-2.43,0.12H740.09c-1.58,0-2.89-0.12-4.46-0.44
					c-13.03-2.07-22.85-13.64-22.85-26.92v-1.59c0-13.28,9.82-24.85,23.21-26.99c1.22-0.26,2.52-0.38,4.1-0.38h443.98
					c0.82,0,1.63,0.05,2.43,0.12v-14.48c-0.81-0.05-1.61-0.12-2.43-0.12H740.09c-2.58,0-4.89,0.23-6.73,0.62
					c-20.31,3.23-35.06,20.56-35.06,41.22v1.59c0,20.66,14.74,37.99,34.7,41.15c2.2,0.46,4.52,0.69,7.09,0.69h443.98
					c0.82,0,1.62-0.08,2.43-0.12V409.03z"/>
			</g>
		</g>
	</g>
	<g>
		<g>
			<g>
				<g>
					<rect x="621.94" y="775.8" class="st16" width="542.21" height="57.98"/>
				</g>
			</g>
		</g>
		<g>
			<g>
				<g>
					<path class="st20" d="M633.22,768.8v69.73c-16.41-2.61-28.96-16.89-28.96-34.07v-1.59C604.26,785.69,616.81,771.4,633.22,768.8
						z"/>
				</g>
			</g>
		</g>
		<g>
			<g>
				<g>
					<path class="st17" d="M1170.58,831.7c-0.8,0.07-1.61,0.12-2.43,0.12H638.81c-1.58,0-2.89-0.12-4.46-0.44
						c-13.03-2.07-22.85-13.64-22.85-26.92v-1.59c0-13.28,9.82-24.85,23.21-26.99c1.22-0.26,2.52-0.38,4.1-0.38h529.34
						c0.82,0,1.63,0.05,2.43,0.12v-14.48c-0.81-0.05-1.61-0.12-2.43-0.12H638.81c-2.58,0-4.89,0.23-6.73,0.62
						c-20.31,3.23-35.06,20.56-35.06,41.22v1.59c0,20.66,14.74,37.99,34.7,41.15c2.2,0.46,4.52,0.69,7.09,0.69h529.34
						c0.82,0,1.62-0.08,2.43-0.12V831.7z"/>
				</g>
			</g>
		</g>
	</g>
	<g>
		<g>
			<g>
				<polygon class="st3" points="758.56,787.49 758.56,825.11 743.31,816.98 729.07,826.13 729.07,787.49 				"/>
			</g>
		</g>
	</g>
	<g>
		<g>
			<g>
				<path class="st11" d="M1194.25,630.73v130.71c-0.08,0.08-0.12,0.12-0.2,0.2H684.46c-24.71,0-44.93-20.22-44.93-44.93v-43.28
					c0-24.71,20.22-44.93,44.93-44.93h507.56C1192.88,629.37,1193.38,629.86,1194.25,630.73z"/>
			</g>
		</g>
	</g>
	<g>
		<g>
			<g>
				<path class="st3" d="M1246.36,628.5h-256c-18.62,0-33.86,15.24-33.86,33.86v65.42c0,18.62,15.24,33.86,33.86,33.86h256
					c0.75,0,1.49-0.14,2.24-0.2V748.1h-240.15c-16.19,0-29.33-13.14-29.33-29.33v-47.41c0-16.19,13.14-29.33,29.33-29.33h240.15
					V628.7C1247.85,628.63,1247.11,628.5,1246.36,628.5z"/>
			</g>
		</g>
	</g>
	<g>
		<g>
			<g>
				<path class="st13" d="M1236.18,727.78v-65.42c0-7.64,2.66-14.63,6.98-20.32h-234.71c-16.19,0-29.33,13.14-29.33,29.33v47.41
					c0,16.19,13.14,29.33,29.33,29.33h234.71C1238.84,742.42,1236.18,735.43,1236.18,727.78z"/>
			</g>
		</g>
	</g>
	<g>
		<g>
			<g>
				<g>
					<path class="st14" d="M1008.44,642.04h234.71c-3.68,4.85-6.04,10.67-6.69,17.01h-228.02c-16.19,0-29.33,13.14-29.33,29.33
						v-17.01C979.12,655.18,992.26,642.04,1008.44,642.04z"/>
				</g>
			</g>
		</g>
	</g>
	<g>
		<g>
			<g>
				<g>
					<path class="st19" d="M648.41,940.05v123.56c0.69,0.06,1.39,0.19,2.08,0.19h555.09c17.34,0,31.52-14.18,31.52-31.52v-60.9
						c0-17.34-14.18-31.52-31.52-31.52H650.49C649.8,939.86,649.11,939.99,648.41,940.05z"/>
				</g>
			</g>
		</g>
		<g>
			<g>
				<g>
					<path class="st21" d="M631.06,939.86h227.32c13.01,0,23.65,14.18,23.65,31.52v60.9c0,17.34-10.64,31.52-23.65,31.52H631.06
						c-0.52,0-1.04-0.13-1.56-0.19v-12.42h216.25c11.31,0,20.49-12.23,20.49-27.3v-44.13c0-15.07-9.18-27.3-20.49-27.3H629.5v-12.42
						C630.02,939.99,630.54,939.86,631.06,939.86z"/>
				</g>
			</g>
		</g>
		<g>
			<g>
				<g>
					<path class="st6" d="M638.17,1032.28v-60.9c0-7.11-1.86-13.62-4.87-18.91h212.45c11.31,0,20.49,12.23,20.49,27.3v44.13
						c0,15.07-9.18,27.3-20.49,27.3H633.3C636.31,1045.91,638.17,1039.4,638.17,1032.28z"/>
				</g>
			</g>
		</g>
		<g>
			<g>
				<g>
					
						<ellipse transform="matrix(0.7071 -0.7071 0.7071 0.7071 -368.2177 1118.2017)" class="st12" cx="1165.68" cy="1003.58" rx="31.52" ry="31.52"/>
				</g>
			</g>
		</g>
		<g>
			<g>
				<g>
					<g>
						<path class="st14" d="M845.75,952.47H633.3c3.01,5.29,4.87,11.8,4.87,18.91v0.39h207.58c11.31,0,20.49,12.23,20.49,27.3v-19.3
							C866.24,964.7,857.06,952.47,845.75,952.47z"/>
					</g>
				</g>
			</g>
		</g>
	</g>
	<g>
		<g>
			<g>
				<polygon class="st17" points="1148.5,672.8 1148.5,732.32 1172.63,719.45 1195.15,733.93 1195.15,672.8 				"/>
			</g>
		</g>
	</g>
	<g>
		<g>
			<g>
				<g>
					<g>
						<g>
							<g>
								<g>
									<path class="st22" d="M605.37,817.35c-0.18,1.17-0.39,2.31-0.62,3.46c-3.53,17.02-13.62,32.61-23.8,47.69
										c-6.13,9.08-12.48,18.27-19.18,27.23c-22.48,30.06-48.78,58.34-83.14,76.76c-16.07,8.61-69.09,2.41-81.5-11.83
										c-16.35-18.76-35.43-35.73-23.18-53.23c29.7-42.45,128.72-132.55,182.99-145.25c9.17-0.29,18.45,1.65,26.14,5.98
										C601.27,778.35,608.23,798.99,605.37,817.35z"/>
								</g>
							</g>
						</g>
					</g>
				</g>
			</g>
			<g id="XMLID_2816_">
				<g>
					<g>
						<g>
							<g>
								<g>
									<path class="st22" d="M702.72,817.35c0.18,1.17,0.39,2.31,0.62,3.46c3.53,17.02,13.62,32.61,23.8,47.69
										c6.13,9.08,12.48,18.27,19.18,27.23c22.48,30.06,48.78,58.34,83.14,76.76c16.07,8.61,69.09,2.41,81.5-11.83
										c16.35-18.76,35.43-35.73,23.18-53.23c-29.7-42.45-128.72-132.55-182.99-145.25c-9.17-0.29-18.45,1.65-26.14,5.98
										C706.82,778.35,699.86,798.99,702.72,817.35z"/>
								</g>
							</g>
						</g>
					</g>
				</g>
			</g>
		</g>
		<g>
			<g>
				<g>
					<g>
						<g>
							<g>
								<g>
									<g>
										<g>
											<path class="st20" d="M562.59,941.4c4.46,0.87,8.97,1.47,13.27,1.88c25.46,2.48,51.17,4.01,76.45,2.15
												c5.03-0.36,10.07-0.84,15.05-1.51c10.86-1.42,27.45-4.04,42.7-8.82c-2.93-20.37-16.64-38.5-34.46-48.93
												c-18.38-10.75-40.62-13.79-61.74-11.14c-9.7,1.23-19.61,3.77-27.16,9.99C575.04,894.6,568.35,924.5,562.59,941.4z"/>
										</g>
									</g>
								</g>
							</g>
						</g>
					</g>
				</g>
			</g>
		</g>
		<g>
			<g>
				<g>
					<g>
						<path class="st23" d="M764.77,802.83c-1.02-5.25-1.96-10.52-2.72-15.8c-1.74-12.08,0.23-20.44-7.36-30.9
							c-6.15-8.47-15.36-14.28-24.64-18.18c-22.57-9.48-47-10.07-71.36-7.94c-24.36-2.13-48.79-1.55-71.36,7.94
							c-9.28,3.9-18.49,9.72-24.64,18.18c-7.59,10.45-5.62,18.82-7.36,30.9c-0.76,5.29-1.71,10.55-2.72,15.8
							c-4.97,25.72-48.63,119.77-49.47,145.9c-0.66,20.62,31.98-21.24,51.01-6.48c7.46,5.78,16.65,8.8,25.75,11.3
							c25.1,6.9,51.07,10.58,77.09,11.1v0.09c0.57-0.01,1.13-0.03,1.7-0.04c0.57,0.01,1.13,0.04,1.7,0.04v-0.09
							c26.03-0.52,51.99-4.2,77.09-11.1c9.1-2.5,18.29-5.52,25.75-11.3c19.02-14.76,51.67,27.1,51.01,6.48
							C813.4,922.6,769.74,828.55,764.77,802.83z"/>
					</g>
				</g>
			</g>
		</g>
		<g>
			<g>
				<g>
					<g>
						<g>
							<g>
								<g>
									<g>
										<path class="st11" d="M917.85,1036.46H418.82c-29.01,0-52.75-23.74-52.75-52.75v0c0-29.02,23.74-52.75,52.75-52.75h499.03
											c29.02,0,52.75,23.74,52.75,52.75v0C970.6,1012.72,946.86,1036.46,917.85,1036.46z"/>
									</g>
								</g>
							</g>
						</g>
					</g>
				</g>
			</g>
		</g>
		<path class="st11" d="M587.34,1130.62c9.19,0.2,18.41,0.1,27.62-0.27c-4.71,0.18-9.43,0.3-14.15,0.34
			C596.31,1130.73,591.82,1130.71,587.34,1130.62z"/>
		<path class="st22" d="M584.74,1110.25c2.03,10.86,8.59,16.17,16.06,20.43c4.72-0.03,9.43-0.15,14.15-0.34
			c0.55-0.02,1.1-0.04,1.65-0.07c1.58-0.07,3.16-0.15,4.73-0.23c1.07-0.06,2.14-0.11,3.21-0.18c1.1-0.07,2.19-0.14,3.28-0.21
			c1.43-0.1,2.86-0.19,4.29-0.3c0.79-0.06,1.58-0.13,2.38-0.19c1.66-0.13,3.32-0.27,4.97-0.42c0.65-0.06,1.3-0.13,1.95-0.19
			c1.76-0.16,3.51-0.33,5.27-0.51c0.74-0.08,1.49-0.16,2.23-0.24c1.64-0.18,3.29-0.35,4.92-0.55c2.39-0.28,4.78-0.57,7.16-0.89
			c-0.09-0.11-0.18-0.22-0.27-0.34C635.01,1122.56,609.42,1117.01,584.74,1110.25z"/>
		<path class="st24" d="M600.81,1130.68c-7.47-4.26-14.03-9.56-16.06-20.43c-22.84-6.26-44.89-13.54-65.5-21.17
			c-24.5,4.82-46.24,11.2-46.24,18.67c0,17.11,74.14,19.96,74.14,19.96c2.31,0.29,4.62,0.56,6.94,0.81c0.45,0.05,0.9,0.09,1.34,0.13
			c1.85,0.19,3.69,0.38,5.55,0.54c0.77,0.07,1.54,0.12,2.32,0.19c1.5,0.12,3,0.25,4.5,0.35c1.13,0.08,2.25,0.14,3.38,0.21
			c1.1,0.07,2.21,0.14,3.31,0.2c1.56,0.08,3.11,0.15,4.67,0.21c0.62,0.03,1.24,0.06,1.86,0.08c2.09,0.08,4.18,0.14,6.27,0.18
			c0.02,0,0.04,0,0.06,0C591.82,1130.71,596.31,1130.73,600.81,1130.68z"/>
		<path class="st11" d="M723.43,1130.68c-4.72-0.03-9.43-0.15-14.15-0.34c9.21,0.37,18.42,0.47,27.62,0.27
			C732.41,1130.71,727.92,1130.73,723.43,1130.68z"/>
		<path class="st11" d="M690.83,1078.89c1.91-5.45,2.48-16.85,4.33-25.01l35.53,21.44l6.47,3.91c0,0,39.43,3.94,71.92,10.67
			c72.66-25.47,138.1-63.02,138.1-63.02l-66.42-50.31l-128.32,2.85l-90.34,54.51l-90.34-54.51l-128.32-2.85l-43.91,33.83
			c-8.88,6.85-7.76,20.58,2.14,25.85c23.81,12.69,66.26,33.82,117.55,52.81c20.62,7.63,42.66,14.92,65.5,21.17
			c24.67,6.76,50.27,12.3,75.99,15.78c0.09,0.11,0.18,0.22,0.27,0.34c0.37-0.05,0.74-0.1,1.11-0.15c0.37,0.05,0.74,0.1,1.11,0.15
			c6.05-7.41,10.78-13.89,12.6-16.74C681.99,1100.02,687.07,1089.67,690.83,1078.89z"/>
		<path class="st22" d="M740.11,1100.62c-0.4-9.7-4.71-17.51-9.41-25.29l-35.53-21.44c-1.85,8.16-2.42,19.56-4.33,25.01
			c-3.76,10.78-8.84,21.13-15,30.74c-1.83,2.85-6.56,9.32-12.6,16.74c2.38,0.31,4.77,0.6,7.16,0.89c1.64,0.19,3.28,0.37,4.92,0.55
			c0.74,0.08,1.49,0.17,2.23,0.24c1.75,0.18,3.51,0.35,5.27,0.51c0.65,0.06,1.3,0.13,1.95,0.19c1.66,0.15,3.31,0.28,4.97,0.42
			c0.79,0.06,1.58,0.13,2.38,0.19c1.43,0.11,2.86,0.2,4.29,0.3c1.09,0.07,2.19,0.15,3.28,0.21c1.07,0.06,2.14,0.12,3.21,0.18
			c1.58,0.08,3.16,0.17,4.73,0.23c0.55,0.02,1.1,0.04,1.65,0.07c4.72,0.18,9.43,0.3,14.15,0.34
			C732.84,1125.32,740.82,1118.33,740.11,1100.62z"/>
		<path class="st24" d="M809.09,1089.91c-32.49-6.73-71.92-10.67-71.92-10.67l-6.47-3.91c4.71,7.78,9.01,15.6,9.41,25.29
			c0.71,17.71-7.27,24.69-16.68,30.06c4.49,0.05,8.98,0.03,13.47-0.06c0.02,0,0.04,0,0.06,0c2.09-0.04,4.18-0.11,6.27-0.18
			c0.62-0.02,1.24-0.05,1.86-0.08c1.56-0.06,3.12-0.13,4.67-0.21c1.11-0.06,2.21-0.13,3.32-0.2c1.13-0.07,2.25-0.13,3.38-0.21
			c1.5-0.11,3-0.23,4.5-0.35c0.77-0.06,1.54-0.12,2.32-0.19c1.85-0.16,3.7-0.35,5.55-0.54c0.45-0.05,0.9-0.08,1.34-0.13
			c2.32-0.25,4.63-0.52,6.94-0.81c0,0,74.14-2.85,74.14-19.96C851.23,1100.7,831.87,1094.62,809.09,1089.91z"/>
		<g>
			<g>
				<g>
					<g>
						<g>
							<path class="st23" d="M551.06,748.67c20.62-8.95,36.99-18.76,60.38-18.08c2.17,0.06,4.41,0.22,6.27,1.2
								c14.42,7.57-7.42,42.06-13.51,51.64c-10.76,16.94-24.14,32.36-35.94,48.69c-1.5,2.08-3.24,4.32-5.82,4.96
								c-2.01,0.5-4.06-0.11-5.97-0.74c-19.46-6.37-38.37-14.21-55.73-24.39c-3.72-2.18-9.15-3.56-11.92-6.85
								c-3.91-4.65,0.08-7.91,3.4-12.18C499.51,783.57,540.13,753.42,551.06,748.67z"/>
						</g>
					</g>
				</g>
			</g>
			<g>
				<g>
					<g>
						<g>
							<g>
								<g>
									<g>
										<g>
											<path class="st23" d="M757.03,748.67c-20.62-8.95-36.99-18.76-60.38-18.08c-2.17,0.06-4.41,0.22-6.27,1.2
												c-14.42,7.57,7.42,42.06,13.51,51.64c10.76,16.94,24.14,32.36,35.94,48.69c1.5,2.08,3.24,4.32,5.82,4.96
												c2.01,0.5,4.06-0.11,5.97-0.74c19.46-6.37,38.37-14.21,55.73-24.39c3.72-2.18,9.15-3.56,11.92-6.85
												c3.91-4.65-0.08-7.91-3.4-12.18C808.58,783.57,767.96,753.42,757.03,748.67z"/>
										</g>
									</g>
								</g>
							</g>
						</g>
					</g>
				</g>
			</g>
		</g>
		<g>
			<g>
				<g>
					<g>
						<g>
							<g>
								<g>
									<g>
										<g>
											<path class="st22" d="M770.49,831.25c0.42,0.13,0.82,0.31,1.22,0.45c-0.15-0.02-0.29-0.05-0.42-0.09
												C771.01,831.49,770.74,831.38,770.49,831.25z"/>
										</g>
									</g>
								</g>
							</g>
						</g>
					</g>
				</g>
			</g>
		</g>
		<g>
			<g>
				<g>
					<g>
						<g>
							<g>
								<path class="st22" d="M670.2,697.3v53c0,10.39-8.41,18.81-18.81,18.81c-10.34,0-18.72-8.33-18.81-18.65V697.3H670.2z"/>
							</g>
						</g>
					</g>
				</g>
			</g>
			<g>
				<g>
					<g>
						<g>
							<g>
								<g>
									<g>
										<g>
											<g>
												<g>
													<g>
														<g>
															<path class="st20" d="M670.2,697.3v33.03c-11.4,8.02-24.07,14.82-37.61,20.12V697.3H670.2z"/>
														</g>
													</g>
												</g>
											</g>
										</g>
									</g>
								</g>
							</g>
						</g>
					</g>
				</g>
			</g>
			<g>
				<g>
					<g>
						<g>
							<g>
								<g>
									<g>
										<g>
											<g>
												<ellipse class="st22" cx="653.26" cy="710.63" rx="24.32" ry="27.69"/>
											</g>
										</g>
									</g>
								</g>
							</g>
						</g>
					</g>
				</g>
			</g>
			<g>
				<g>
					<g>
						<g>
							<g>
								<g>
									<g>
										<g>
											<g>
												<g>
													
														<ellipse transform="matrix(0.9732 -0.2298 0.2298 0.9732 -146.6022 175.6419)" class="st22" cx="680.95" cy="717.37" rx="7.48" ry="7.48"/>
												</g>
											</g>
										</g>
									</g>
								</g>
							</g>
						</g>
					</g>
				</g>
			</g>
			<g>
				<g>
					<g>
						<g>
							<g>
								<g>
									<g>
										<g>
											<g>
												<g>
													
														<ellipse transform="matrix(0.9732 -0.2298 0.2298 0.9732 -148.0839 162.9163)" class="st22" cx="625.56" cy="717.37" rx="7.48" ry="7.48"/>
												</g>
											</g>
										</g>
									</g>
								</g>
							</g>
						</g>
					</g>
				</g>
			</g>
			<g>
				<g>
					<g>
						<g>
							<g>
								<g>
									<g>
										<g>
											<g>
												<path class="st19" d="M616.73,699.93c0.62-1.11,1.54-2.05,2.06-3.22c2.36-5.31-4.67-10.93-3.37-16.58
													c1.1-4.77,7.17-6.34,10.13-10.24c1.41-1.86,2.04-4.18,3.07-6.27c5.11-10.45,21.4-12.92,29.38-4.46
													c1.02,1.08,1.98,2.35,3.39,2.84c2.24,0.78,4.56-0.66,6.81-1.43c4.98-1.71,10.98,0.26,13.98,4.58s2.76,10.63-0.56,14.7
													c3.31,1.62,6.72,3.33,9.02,6.21c2.3,2.88,3.12,7.29,0.89,10.21c-1.06,1.39-2.7,2.34-3.45,3.91
													c-0.98,2.05-0.17,4.5-0.58,6.73c-1.02,5.56-8.27,6.91-13.93,7c2.28-3.66-1.89-8.32-6.14-9.08
													c-4.25-0.76-8.67,0.55-12.92-0.28c-5.37-1.06-9.15-5.63-10.58-10.68c-4.34,7.79-1.18,17.65-12.21,19.98
													C624.73,715.32,612.03,708.38,616.73,699.93z"/>
											</g>
										</g>
									</g>
								</g>
							</g>
						</g>
					</g>
				</g>
			</g>
			<g>
				<g>
					<g>
						<g>
							<g>
								<g>
									<g>
										<g>
											<g>
												<g>
													<g>
														<g>
															<g>
																<g>
																	<polygon class="st19" points="657.09,728.84 657.46,727.03 653,726.1 653.99,714.95 652.15,714.78 651.02,727.58 
																																			"/>
																</g>
															</g>
														</g>
													</g>
												</g>
											</g>
										</g>
									</g>
								</g>
							</g>
						</g>
					</g>
				</g>
			</g>
		</g>
		<path class="st17" d="M653.71,872.83L586,922.64c-24.5-33.31-20.97-80,8.27-109.25c32.61-32.61,86.27-32.61,118.87,0
			c32.61,32.61,32.61,86.27,0,118.87L653.71,872.83z"/>
		<g id="XMLID_1368_">
			<g>
				<g>
					<g>
						<path class="st6" d="M650.66,864.22l11.25-16.92c9.93-14.92,28.25-22.88,46.7-20.3l20.09,2.81L650.66,864.22z"/>
					</g>
				</g>
				<g>
					<g>
						<path class="st6" d="M657.44,864.22l-11.26-16.92c-9.93-14.92-28.25-22.88-46.7-20.3l-20.09,2.81L657.44,864.22z"/>
					</g>
				</g>
			</g>
			<g>
				<g>
					<polygon class="st19" points="654.05,861.92 581.21,829.82 581.21,928.11 648.84,957.59 659.25,957.59 726.88,928.11 
						726.88,829.82 					"/>
				</g>
			</g>
		</g>
		<g>
			<g id="XMLID_1276_">
				<g>
					<g>
						<g>
							<g>
								<g>
									<g>
										<g>
											<g>
												<g>
													<g>
														<path class="st22" d="M669.91,916.29c0.12,0.33,0.28,0.66,0.44,0.98c0.26,0.53,0.92,0.71,1.4,0.4
															c8.26-5.55,18.3-9.95,30.4-13.33c0.56-0.15,1.14,0.16,1.3,0.75c0.18,0.58-0.16,1.17-0.72,1.31
															c-11.85,3.31-21.68,7.62-29.74,13.02c-0.48,0.32-0.56,1.01-0.17,1.47c0.45,0.51,0.92,1.01,1.42,1.43
															c0.3,0.29,0.76,0.33,1.1,0.13c8.46-4.98,18.99-10.09,28.71-11.69c0.59-0.08,1.12,0.32,1.23,0.9
															c0.11,0.58-0.29,1.14-0.85,1.24c-8.65,1.42-18.01,5.73-25.88,10.18c-0.78,0.45-0.6,1.64,0.25,1.83
															c3.23,0.61,6.88-2.18,9.83-3.12c42.29-13.42,66.7,10.8,103.9,26.51c39.44,16.66,84.72,22.9,125.7,7.92
															c11.85-4.33,24.25-11.7,27.34-23.93c4.47-17.67-12.72-33.21-29.22-40.96c-44.76-21.01-98.47-10.23-146.65-11.87
															c-2.3-0.08-4.56-0.14-6.79-0.15c-15.15-0.24-28.19,0.71-37.07,3.42c-4.42,0.74-8.74,1.65-12.92,2.75
															c-3.21,0.83-6.42,1.87-9.61,3.04c-10.73,3.98-21.18,9.81-29.7,17.07c-1.22,1.02-3.92,3.58-4.4,5.3
															c-0.03,0.06-0.04,0.11-0.04,0.16c-0.21,0.86,0.79,1.55,1.52,1.02c8.82-6.31,18.73-11.09,29.18-14
															c0.56-0.15,1.15,0.19,1.33,0.76c0.15,0.56-0.19,1.15-0.74,1.32c-10.89,3.02-21.2,8.14-30.25,14.95
															C669.84,915.38,669.74,915.86,669.91,916.29z"/>
													</g>
												</g>
											</g>
										</g>
									</g>
								</g>
							</g>
						</g>
					</g>
				</g>
			</g>
			<g>
				<g>
					<g>
						<g>
							<g>
								<g>
									<g>
										<g>
											<g>
												<g>
													<g>
														<path class="st22" d="M638.18,921.81c-0.12,0.33-0.28,0.66-0.44,0.98c-0.26,0.53-0.92,0.71-1.4,0.4
															c-8.26-5.55-18.3-9.95-30.4-13.33c-0.56-0.15-1.14,0.16-1.3,0.75c-0.18,0.58,0.16,1.17,0.72,1.31
															c11.85,3.31,21.68,7.62,29.74,13.02c0.48,0.32,0.56,1.01,0.17,1.47c-0.45,0.51-0.92,1.01-1.42,1.43
															c-0.3,0.29-0.76,0.33-1.11,0.13c-8.46-4.98-18.99-10.09-28.71-11.69c-0.59-0.08-1.12,0.32-1.23,0.9
															c-0.11,0.58,0.29,1.14,0.85,1.24c8.65,1.42,18.01,5.73,25.88,10.18c0.78,0.45,0.6,1.64-0.25,1.83
															c-3.23,0.61-6.88-2.18-9.83-3.12c-42.29-13.42-66.7,10.8-103.9,26.51c-39.44,16.66-84.72,22.9-125.7,7.92
															c-11.85-4.33-24.25-11.7-27.34-23.93c-4.47-17.67,12.72-33.21,29.22-40.96c44.76-21.01,98.47-10.23,146.65-11.87
															c2.3-0.08,4.56-0.14,6.79-0.15c15.15-0.24,28.19,0.71,37.07,3.42c4.42,0.74,8.74,1.65,12.92,2.75
															c3.21,0.83,6.42,1.87,9.61,3.04c10.73,3.98,21.18,9.81,29.7,17.07c1.22,1.02,3.92,3.58,4.4,5.3
															c0.03,0.06,0.04,0.11,0.04,0.16c0.21,0.86-0.79,1.55-1.52,1.02c-8.82-6.31-18.73-11.09-29.18-14
															c-0.56-0.15-1.15,0.19-1.33,0.76c-0.15,0.56,0.19,1.15,0.74,1.32c10.9,3.02,21.2,8.14,30.25,14.95
															C638.25,920.9,638.35,921.37,638.18,921.81z"/>
													</g>
												</g>
											</g>
										</g>
									</g>
								</g>
							</g>
						</g>
					</g>
				</g>
			</g>
		</g>
	</g>
</g>
<g id="New_Symbol_36_1_">
	<g id="New_Symbol_1_612_">
	</g>
	<g id="New_Symbol_202_3_">
	</g>
	<g id="New_Symbol_7_6_">
	</g>
</g>
<g id="New_Symbol_32_3_">
	<g id="New_Symbol_1_611_">
	</g>
	<g id="New_Symbol_30_2_">
		<g id="New_Symbol_14_6_">
		</g>
	</g>
	<g id="New_Symbol_31_2_">
	</g>
	<g id="New_Symbol_134_2_">
	</g>
</g>
<g id="New_Symbol_32_1_">
	<g id="New_Symbol_134_29_">
	</g>
</g>
<g id="New_Symbol_32">
	<g id="New_Symbol_134">
	</g>
	<g id="New_Symbol_30">
		<g id="New_Symbol_14">
		</g>
	</g>
</g>
<g id="New_Symbol_35">
</g>
<g id="New_Symbol_58">
	<g id="New_Symbol_26">
	</g>
</g>
<g id="New_Symbol_61">
</g>
<g id="New_Symbol_48_1_">
</g>
<g id="New_Symbol_48">
</g>
<g id="New_Symbol_46">
	<g id="New_Symbol_21">
	</g>
	<g id="New_Symbol_10">
	</g>
</g>
<g id="New_Symbol_31">
</g>
</svg>
